STARTFONT 2.1
FONT -DEC-Terminal-Bold-R-Narrow--28-200-100-100-C-120-ISO8859-1
SIZE 20 100 100
FONTBOUNDINGBOX 12 25 0 -4

STARTPROPERTIES 25
CHARSET_REGISTRY "ISO8859"
CHARSET_ENCODING "1"
CAP_HEIGHT 16
X_HEIGHT 12
AVERAGE_WIDTH 120
FONTNAME_REGISTRY ""
FAMILY_NAME "Terminal"
FOUNDRY "DEC"
WEIGHT_NAME "Bold"
SETWIDTH_NAME "Narrow"
SLANT "R"
ADD_STYLE_NAME ""
PIXEL_SIZE 28
POINT_SIZE 200
RESOLUTION_X 100
RESOLUTION_Y 100
SPACING "C"
CHARSET_COLLECTIONS "ASCII ISO8859-1"
FULL_NAME "Terminal Bold Narrow"
COPYRIGHT "Copyright (c) 1990 Digital Equipment Corp. All rights reserved."
WEIGHT 10
QUAD_WIDTH 12
DEFAULT_CHAR 159
FONT_DESCENT 4
FONT_ASCENT 22
ENDPROPERTIES

CHARS 194

STARTCHAR space
ENCODING 32
SWIDTH 430 0
DWIDTH 12 0
BBX 1 1 0 0
BITMAP
00
ENDCHAR

STARTCHAR exclam
ENCODING 33
SWIDTH 430 0
DWIDTH 12 0
BBX 3 16 4 0
BITMAP
E0
E0
E0
E0
E0
E0
E0
E0
E0
E0
E0
E0
00
E0
E0
E0
ENDCHAR

STARTCHAR quotedbl
ENCODING 34
SWIDTH 430 0
DWIDTH 12 0
BBX 8 6 2 12
BITMAP
E7
E7
E7
E7
E7
E7
ENDCHAR

STARTCHAR numbersign
ENCODING 35
SWIDTH 430 0
DWIDTH 12 0
BBX 10 14 1 1
BITMAP
7380
7380
7380
7380
FFC0
FFC0
7380
7380
FFC0
FFC0
7380
7380
7380
7380
ENDCHAR

STARTCHAR dollar
ENCODING 36
SWIDTH 430 0
DWIDTH 12 0
BBX 10 18 1 -1
BITMAP
0C00
0C00
3F00
7F80
EDC0
EDC0
ECC0
FC00
7F00
3F80
0FC0
CDC0
EDC0
EDC0
7F80
3F00
0C00
0C00
ENDCHAR

STARTCHAR percent
ENCODING 37
SWIDTH 430 0
DWIDTH 12 0
BBX 11 16 1 0
BITMAP
3000
7800
ECE0
EDE0
7BE0
37C0
0F80
1F00
3E00
7C00
FB00
F780
EEC0
0EC0
0780
0300
ENDCHAR

STARTCHAR ampersand
ENCODING 38
SWIDTH 430 0
DWIDTH 12 0
BBX 10 16 1 0
BITMAP
1E00
3F00
3300
3300
3300
3F00
1E00
3C00
7EC0
F7C0
E380
E300
E700
FF80
7DC0
3CC0
ENDCHAR

STARTCHAR quoteright
ENCODING 39
SWIDTH 430 0
DWIDTH 12 0
BBX 4 5 4 13
BITMAP
70
70
70
E0
C0
ENDCHAR

STARTCHAR parenleft
ENCODING 40
SWIDTH 430 0
DWIDTH 12 0
BBX 7 20 3 -2
BITMAP
0E
1C
38
38
70
70
E0
E0
E0
E0
E0
E0
E0
E0
70
70
38
38
1C
0E
ENDCHAR

STARTCHAR parenright
ENCODING 41
SWIDTH 430 0
DWIDTH 12 0
BBX 7 20 3 -2
BITMAP
E0
70
38
38
1C
1C
0E
0E
0E
0E
0E
0E
0E
0E
1C
1C
38
38
70
E0
ENDCHAR

STARTCHAR asterisk
ENCODING 42
SWIDTH 430 0
DWIDTH 12 0
BBX 8 10 2 6
BITMAP
18
DB
FF
FF
3E
3C
FF
FF
DB
18
ENDCHAR

STARTCHAR plus
ENCODING 43
SWIDTH 430 0
DWIDTH 12 0
BBX 11 11 0 3
BITMAP
0E00
0E00
0E00
0E00
FFE0
FFE0
FFE0
0E00
0E00
0E00
0E00
ENDCHAR

STARTCHAR comma
ENCODING 44
SWIDTH 430 0
DWIDTH 12 0
BBX 5 5 4 -2
BITMAP
38
38
38
70
E0
ENDCHAR

STARTCHAR minus
ENCODING 45
SWIDTH 430 0
DWIDTH 12 0
BBX 10 3 1 7
BITMAP
FFC0
FFC0
FFC0
ENDCHAR

STARTCHAR period
ENCODING 46
SWIDTH 430 0
DWIDTH 12 0
BBX 3 3 4 0
BITMAP
E0
E0
E0
ENDCHAR

STARTCHAR slash
ENCODING 47
SWIDTH 430 0
DWIDTH 12 0
BBX 10 18 1 -1
BITMAP
01C0
01C0
03C0
0380
0380
0700
0700
0E00
0E00
1C00
1C00
3800
3800
7000
7000
F000
E000
E000
ENDCHAR

STARTCHAR zero
ENCODING 48
SWIDTH 430 0
DWIDTH 12 0
BBX 10 16 1 0
BITMAP
1E00
3F00
7380
7380
E1C0
E1C0
E1C0
E1C0
E1C0
E1C0
E1C0
E1C0
7380
7380
3F00
1E00
ENDCHAR

STARTCHAR one
ENCODING 49
SWIDTH 430 0
DWIDTH 12 0
BBX 9 16 1 0
BITMAP
0C00
1C00
3C00
7C00
FC00
DC00
1C00
1C00
1C00
1C00
1C00
1C00
1C00
1C00
FF80
FF80
ENDCHAR

STARTCHAR two
ENCODING 50
SWIDTH 430 0
DWIDTH 12 0
BBX 9 16 1 0
BITMAP
3E00
7F00
E380
E380
E380
0380
0700
0F00
1E00
1C00
3800
7800
7000
F380
FF80
FF80
ENDCHAR

STARTCHAR three
ENCODING 51
SWIDTH 430 0
DWIDTH 12 0
BBX 9 16 1 0
BITMAP
3E00
7F00
E780
E380
0380
0780
1F00
1F00
0780
0380
0380
0380
E380
E780
7F00
3E00
ENDCHAR

STARTCHAR four
ENCODING 52
SWIDTH 430 0
DWIDTH 12 0
BBX 9 16 2 0
BITMAP
0F00
0F00
1F00
1F00
3F00
3700
7700
6700
E700
C700
FF80
FF80
0700
0700
0700
0700
ENDCHAR

STARTCHAR five
ENCODING 53
SWIDTH 430 0
DWIDTH 12 0
BBX 9 16 1 0
BITMAP
FF80
FF80
E000
E000
E000
FE00
FF00
E780
C380
0380
0380
0380
E380
E780
7F00
3E00
ENDCHAR

STARTCHAR six
ENCODING 54
SWIDTH 430 0
DWIDTH 12 0
BBX 9 16 1 0
BITMAP
3E00
7F00
7380
E380
E000
E000
FE00
FF00
F780
E380
E380
E380
E380
F780
7F00
3E00
ENDCHAR

STARTCHAR seven
ENCODING 55
SWIDTH 430 0
DWIDTH 12 0
BBX 9 16 2 0
BITMAP
FF80
FF80
0380
0380
0700
0700
0E00
0E00
1C00
1C00
3800
3800
7000
7000
E000
E000
ENDCHAR

STARTCHAR eight
ENCODING 56
SWIDTH 430 0
DWIDTH 12 0
BBX 9 16 1 0
BITMAP
3E00
7F00
E380
E380
E380
E380
7F00
7F00
F780
E380
E380
E380
E380
F780
7F00
3E00
ENDCHAR

STARTCHAR nine
ENCODING 57
SWIDTH 430 0
DWIDTH 12 0
BBX 9 16 1 0
BITMAP
3E00
7F00
F780
E380
E380
E380
E380
F780
7F80
3F80
0380
0380
E380
E700
7F00
3E00
ENDCHAR

STARTCHAR colon
ENCODING 58
SWIDTH 430 0
DWIDTH 12 0
BBX 3 10 4 0
BITMAP
E0
E0
E0
00
00
00
00
E0
E0
E0
ENDCHAR

STARTCHAR semicolon
ENCODING 59
SWIDTH 430 0
DWIDTH 12 0
BBX 5 12 2 -2
BITMAP
38
38
38
00
00
00
00
38
38
38
70
E0
ENDCHAR

STARTCHAR less
ENCODING 60
SWIDTH 430 0
DWIDTH 12 0
BBX 10 14 1 0
BITMAP
03C0
0780
0F00
1E00
3C00
7800
F000
F000
7800
3C00
1E00
0F00
0780
03C0
ENDCHAR

STARTCHAR equal
ENCODING 61
SWIDTH 430 0
DWIDTH 12 0
BBX 10 8 1 4
BITMAP
FFC0
FFC0
FFC0
0000
0000
FFC0
FFC0
FFC0
ENDCHAR

STARTCHAR greater
ENCODING 62
SWIDTH 430 0
DWIDTH 12 0
BBX 10 14 1 0
BITMAP
F000
7800
3C00
1E00
0F00
0780
03C0
03C0
0780
0F00
1E00
3C00
7800
F000
ENDCHAR

STARTCHAR question
ENCODING 63
SWIDTH 430 0
DWIDTH 12 0
BBX 10 16 1 0
BITMAP
3F00
7F80
F3C0
E1C0
E1C0
03C0
0780
0F00
1E00
1C00
1C00
1C00
0000
1C00
1C00
1C00
ENDCHAR

STARTCHAR at
ENCODING 64
SWIDTH 430 0
DWIDTH 12 0
BBX 11 16 1 0
BITMAP
3F00
7F80
F3C0
E1E0
E7E0
EFE0
ECE0
ECE0
ECE0
EFE0
E7E0
E000
E000
F000
7F00
3F00
ENDCHAR

STARTCHAR A
ENCODING 65
SWIDTH 430 0
DWIDTH 12 0
BBX 10 16 1 0
BITMAP
0C00
0C00
1E00
3F00
3F00
7380
7380
6180
E1C0
FFC0
FFC0
E1C0
E1C0
E1C0
E1C0
E1C0
ENDCHAR

STARTCHAR B
ENCODING 66
SWIDTH 430 0
DWIDTH 12 0
BBX 10 16 1 0
BITMAP
FF00
FF80
E3C0
E1C0
E1C0
E3C0
FF80
FF80
E3C0
E1C0
E1C0
E1C0
E1C0
E3C0
FF80
FF00
ENDCHAR

STARTCHAR C
ENCODING 67
SWIDTH 430 0
DWIDTH 12 0
BBX 10 16 1 0
BITMAP
3F00
7F80
F3C0
E1C0
E000
E000
E000
E000
E000
E000
E000
E000
E1C0
F3C0
7F80
3F00
ENDCHAR

STARTCHAR D
ENCODING 68
SWIDTH 430 0
DWIDTH 12 0
BBX 10 16 1 0
BITMAP
FF00
FF80
E3C0
E1C0
E1C0
E1C0
E1C0
E1C0
E1C0
E1C0
E1C0
E1C0
E1C0
E3C0
FF80
FF00
ENDCHAR

STARTCHAR E
ENCODING 69
SWIDTH 430 0
DWIDTH 12 0
BBX 10 16 1 0
BITMAP
FFC0
FFC0
E000
E000
E000
E000
E000
FF00
FF00
E000
E000
E000
E000
E000
FFC0
FFC0
ENDCHAR

STARTCHAR F
ENCODING 70
SWIDTH 430 0
DWIDTH 12 0
BBX 10 16 1 0
BITMAP
FFC0
FFC0
E000
E000
E000
E000
E000
FF00
FF00
E000
E000
E000
E000
E000
E000
E000
ENDCHAR

STARTCHAR G
ENCODING 71
SWIDTH 430 0
DWIDTH 12 0
BBX 10 16 1 0
BITMAP
3F00
7F80
F3C0
E1C0
E000
E000
E000
E000
E3C0
E3C0
E1C0
E1C0
E1C0
F3C0
7F80
3F00
ENDCHAR

STARTCHAR H
ENCODING 72
SWIDTH 430 0
DWIDTH 12 0
BBX 10 16 1 0
BITMAP
E1C0
E1C0
E1C0
E1C0
E1C0
E1C0
E1C0
FFC0
FFC0
E1C0
E1C0
E1C0
E1C0
E1C0
E1C0
E1C0
ENDCHAR

STARTCHAR I
ENCODING 73
SWIDTH 430 0
DWIDTH 12 0
BBX 9 16 2 0
BITMAP
FF80
FF80
1C00
1C00
1C00
1C00
1C00
1C00
1C00
1C00
1C00
1C00
1C00
1C00
FF80
FF80
ENDCHAR

STARTCHAR J
ENCODING 74
SWIDTH 430 0
DWIDTH 12 0
BBX 10 16 1 0
BITMAP
0FC0
0FC0
0380
0380
0380
0380
0380
0380
0380
0380
E380
E380
E380
F780
7F00
3E00
ENDCHAR

STARTCHAR K
ENCODING 75
SWIDTH 430 0
DWIDTH 12 0
BBX 11 16 1 0
BITMAP
E0E0
E1E0
E3C0
E780
EF00
FE00
FC00
F800
F800
FC00
FE00
EF00
E780
E3C0
E1E0
E0E0
ENDCHAR

STARTCHAR L
ENCODING 76
SWIDTH 430 0
DWIDTH 12 0
BBX 10 16 1 0
BITMAP
E000
E000
E000
E000
E000
E000
E000
E000
E000
E000
E000
E000
E000
E000
FFC0
FFC0
ENDCHAR

STARTCHAR M
ENCODING 77
SWIDTH 430 0
DWIDTH 12 0
BBX 10 16 1 0
BITMAP
E1C0
E1C0
E1C0
F3C0
F3C0
FFC0
FFC0
EDC0
EDC0
E1C0
E1C0
E1C0
E1C0
E1C0
E1C0
E1C0
ENDCHAR

STARTCHAR N
ENCODING 78
SWIDTH 430 0
DWIDTH 12 0
BBX 10 16 1 0
BITMAP
E1C0
E1C0
F1C0
F1C0
F9C0
F9C0
F9C0
EDC0
EDC0
E7C0
E7C0
E7C0
E3C0
E3C0
E1C0
E1C0
ENDCHAR

STARTCHAR O
ENCODING 79
SWIDTH 430 0
DWIDTH 12 0
BBX 10 16 1 0
BITMAP
3F00
7F80
F3C0
E1C0
E1C0
E1C0
E1C0
E1C0
E1C0
E1C0
E1C0
E1C0
E1C0
F3C0
7F80
3F00
ENDCHAR

STARTCHAR P
ENCODING 80
SWIDTH 430 0
DWIDTH 12 0
BBX 10 16 1 0
BITMAP
FF00
FF80
E3C0
E1C0
E1C0
E1C0
E1C0
E3C0
FF80
FF00
E000
E000
E000
E000
E000
E000
ENDCHAR

STARTCHAR Q
ENCODING 81
SWIDTH 430 0
DWIDTH 12 0
BBX 10 18 1 -2
BITMAP
3F00
7F80
F3C0
E1C0
E1C0
E1C0
E1C0
E1C0
E1C0
E1C0
E1C0
E1C0
EDC0
FFC0
7F80
3F00
0380
01C0
ENDCHAR

STARTCHAR R
ENCODING 82
SWIDTH 430 0
DWIDTH 12 0
BBX 11 16 1 0
BITMAP
FF00
FF80
E3C0
E1C0
E1C0
E1C0
E1C0
E3C0
FF80
FF00
EE00
E700
E780
E380
E3C0
E1E0
ENDCHAR

STARTCHAR S
ENCODING 83
SWIDTH 430 0
DWIDTH 12 0
BBX 10 16 1 0
BITMAP
3F00
7F80
F3C0
E1C0
E000
F000
FF00
7F80
3FC0
01C0
01C0
01C0
E1C0
F3C0
7F80
3F00
ENDCHAR

STARTCHAR T
ENCODING 84
SWIDTH 430 0
DWIDTH 12 0
BBX 9 16 2 0
BITMAP
FF80
FF80
1C00
1C00
1C00
1C00
1C00
1C00
1C00
1C00
1C00
1C00
1C00
1C00
1C00
1C00
ENDCHAR

STARTCHAR U
ENCODING 85
SWIDTH 430 0
DWIDTH 12 0
BBX 10 16 1 0
BITMAP
E1C0
E1C0
E1C0
E1C0
E1C0
E1C0
E1C0
E1C0
E1C0
E1C0
E1C0
E1C0
E1C0
F3C0
7F80
3F00
ENDCHAR

STARTCHAR V
ENCODING 86
SWIDTH 430 0
DWIDTH 12 0
BBX 10 16 1 0
BITMAP
E1C0
E1C0
E1C0
E1C0
E1C0
E1C0
E1C0
E1C0
E1C0
E1C0
7380
7F80
3F00
1E00
0C00
0C00
ENDCHAR

STARTCHAR W
ENCODING 87
SWIDTH 430 0
DWIDTH 12 0
BBX 10 16 1 0
BITMAP
E1C0
E1C0
E1C0
E1C0
E1C0
E1C0
EDC0
EDC0
EDC0
EDC0
EDC0
EDC0
EDC0
FFC0
FFC0
7380
ENDCHAR

STARTCHAR X
ENCODING 88
SWIDTH 430 0
DWIDTH 12 0
BBX 10 16 1 0
BITMAP
E1C0
E1C0
E1C0
7380
7380
3F00
3F00
1E00
1E00
3F00
3F00
7380
7380
E1C0
E1C0
E1C0
ENDCHAR

STARTCHAR Y
ENCODING 89
SWIDTH 430 0
DWIDTH 12 0
BBX 10 16 1 0
BITMAP
E1C0
E1C0
E1C0
E1C0
E1C0
F3C0
7380
7F80
3F00
1E00
1E00
1E00
1E00
1E00
1E00
1E00
ENDCHAR

STARTCHAR Z
ENCODING 90
SWIDTH 430 0
DWIDTH 12 0
BBX 10 16 1 0
BITMAP
FFC0
FFC0
01C0
01C0
01C0
03C0
0780
0F00
1E00
3C00
7800
F000
E000
E000
FFC0
FFC0
ENDCHAR

STARTCHAR bracketleft
ENCODING 91
SWIDTH 430 0
DWIDTH 12 0
BBX 7 20 3 -2
BITMAP
FE
FE
E0
E0
E0
E0
E0
E0
E0
E0
E0
E0
E0
E0
E0
E0
E0
E0
FE
FE
ENDCHAR

STARTCHAR backslash
ENCODING 92
SWIDTH 430 0
DWIDTH 12 0
BBX 10 18 1 -1
BITMAP
E000
E000
F000
7000
7000
3800
3800
1C00
1C00
0E00
0E00
0700
0700
0380
0380
03C0
01C0
01C0
ENDCHAR

STARTCHAR bracketright
ENCODING 93
SWIDTH 430 0
DWIDTH 12 0
BBX 7 20 2 -2
BITMAP
FE
FE
0E
0E
0E
0E
0E
0E
0E
0E
0E
0E
0E
0E
0E
0E
0E
0E
FE
FE
ENDCHAR

STARTCHAR asciicircum
ENCODING 94
SWIDTH 430 0
DWIDTH 12 0
BBX 10 6 1 6
BITMAP
0C00
1E00
3F00
7F80
F3C0
E1C0
ENDCHAR

STARTCHAR underscore
ENCODING 95
SWIDTH 430 0
DWIDTH 12 0
BBX 10 3 1 0
BITMAP
FFC0
FFC0
FFC0
ENDCHAR

STARTCHAR quoteleft
ENCODING 96
SWIDTH 430 0
DWIDTH 12 0
BBX 4 5 4 13
BITMAP
E0
E0
E0
70
30
ENDCHAR

STARTCHAR a
ENCODING 97
SWIDTH 430 0
DWIDTH 12 0
BBX 10 12 1 0
BITMAP
7F00
7F80
03C0
01C0
3DC0
7FC0
E3C0
E1C0
E1C0
F3C0
7FC0
3DC0
ENDCHAR

STARTCHAR b
ENCODING 98
SWIDTH 430 0
DWIDTH 12 0
BBX 10 16 1 0
BITMAP
E000
E000
E000
E000
EF00
FF80
F3C0
E1C0
E1C0
E1C0
E1C0
E1C0
E1C0
F3C0
FF80
EF00
ENDCHAR

STARTCHAR c
ENCODING 99
SWIDTH 430 0
DWIDTH 12 0
BBX 10 12 1 0
BITMAP
3F00
7F80
F3C0
E1C0
E000
E000
E000
E000
E1C0
F3C0
7F80
3F00
ENDCHAR

STARTCHAR d
ENCODING 100
SWIDTH 430 0
DWIDTH 12 0
BBX 10 16 1 0
BITMAP
01C0
01C0
01C0
01C0
3DC0
7FC0
F3C0
E1C0
E1C0
E1C0
E1C0
E1C0
E1C0
F3C0
7FC0
3DC0
ENDCHAR

STARTCHAR e
ENCODING 101
SWIDTH 430 0
DWIDTH 12 0
BBX 10 12 1 0
BITMAP
3F00
7F80
F3C0
E1C0
FFC0
FFC0
E000
E000
E1C0
F3C0
7F80
3F00
ENDCHAR

STARTCHAR f
ENCODING 102
SWIDTH 430 0
DWIDTH 12 0
BBX 9 16 2 0
BITMAP
0F80
1F80
3800
3800
3800
3800
FF00
FF00
3800
3800
3800
3800
3800
3800
3800
3800
ENDCHAR

STARTCHAR g
ENCODING 103
SWIDTH 430 0
DWIDTH 12 0
BBX 10 16 1 -4
BITMAP
3FC0
7FC0
F3C0
E1C0
E1C0
E1C0
E1C0
E1C0
F3C0
7FC0
3DC0
01C0
0380
0780
7F00
7E00
ENDCHAR

STARTCHAR h
ENCODING 104
SWIDTH 430 0
DWIDTH 12 0
BBX 10 16 1 0
BITMAP
E000
E000
E000
E000
EF00
FF80
F3C0
E1C0
E1C0
E1C0
E1C0
E1C0
E1C0
E1C0
E1C0
E1C0
ENDCHAR

STARTCHAR i
ENCODING 105
SWIDTH 430 0
DWIDTH 12 0
BBX 9 17 2 0
BITMAP
1C00
1C00
1C00
0000
0000
FC00
FC00
1C00
1C00
1C00
1C00
1C00
1C00
1C00
1C00
FF80
FF80
ENDCHAR

STARTCHAR j
ENCODING 106
SWIDTH 430 0
DWIDTH 12 0
BBX 8 20 1 -3
BITMAP
07
07
07
00
00
7F
7F
07
07
07
07
07
07
07
07
07
07
0F
FE
F8
ENDCHAR

STARTCHAR k
ENCODING 107
SWIDTH 430 0
DWIDTH 12 0
BBX 11 16 1 0
BITMAP
E000
E000
E000
E000
E3C0
E780
EF00
FE00
FC00
F800
FC00
FE00
EF00
E780
E3C0
E1E0
ENDCHAR

STARTCHAR l
ENCODING 108
SWIDTH 430 0
DWIDTH 12 0
BBX 9 16 2 0
BITMAP
7C00
7C00
1C00
1C00
1C00
1C00
1C00
1C00
1C00
1C00
1C00
1C00
1C00
1C00
FF80
FF80
ENDCHAR

STARTCHAR m
ENCODING 109
SWIDTH 430 0
DWIDTH 12 0
BBX 10 12 1 0
BITMAP
F380
FFC0
FFC0
EDC0
EDC0
EDC0
EDC0
EDC0
E1C0
E1C0
E1C0
E1C0
ENDCHAR

STARTCHAR n
ENCODING 110
SWIDTH 430 0
DWIDTH 12 0
BBX 10 12 1 0
BITMAP
EF00
FF80
F3C0
E1C0
E1C0
E1C0
E1C0
E1C0
E1C0
E1C0
E1C0
E1C0
ENDCHAR

STARTCHAR o
ENCODING 111
SWIDTH 430 0
DWIDTH 12 0
BBX 10 12 1 0
BITMAP
3F00
7F80
F3C0
E1C0
E1C0
E1C0
E1C0
E1C0
E1C0
F3C0
7F80
3F00
ENDCHAR

STARTCHAR p
ENCODING 112
SWIDTH 430 0
DWIDTH 12 0
BBX 10 15 1 -3
BITMAP
EF00
FF80
F3C0
E1C0
E1C0
E1C0
E1C0
E1C0
E1C0
F3C0
FF80
EF00
E000
E000
E000
ENDCHAR

STARTCHAR q
ENCODING 113
SWIDTH 430 0
DWIDTH 12 0
BBX 10 15 1 -3
BITMAP
3DC0
7FC0
F3C0
E1C0
E1C0
E1C0
E1C0
E1C0
E1C0
F3C0
7FC0
3DC0
01C0
01C0
01C0
ENDCHAR

STARTCHAR r
ENCODING 114
SWIDTH 430 0
DWIDTH 12 0
BBX 9 12 2 0
BITMAP
EE00
FF00
F380
E380
E380
E000
E000
E000
E000
E000
E000
E000
ENDCHAR

STARTCHAR s
ENCODING 115
SWIDTH 430 0
DWIDTH 12 0
BBX 10 12 1 0
BITMAP
3F00
7F80
F3C0
E1C0
F800
7F00
3F80
07C0
E1C0
F3C0
7F80
3F00
ENDCHAR

STARTCHAR t
ENCODING 116
SWIDTH 430 0
DWIDTH 12 0
BBX 9 16 1 0
BITMAP
3800
3800
3800
3800
FF80
FF80
3800
3800
3800
3800
3800
3800
3800
3C00
1F80
0F80
ENDCHAR

STARTCHAR u
ENCODING 117
SWIDTH 430 0
DWIDTH 12 0
BBX 10 12 1 0
BITMAP
E1C0
E1C0
E1C0
E1C0
E1C0
E1C0
E1C0
E1C0
E1C0
F3C0
7FC0
3DC0
ENDCHAR

STARTCHAR v
ENCODING 118
SWIDTH 430 0
DWIDTH 12 0
BBX 10 12 1 0
BITMAP
E1C0
E1C0
E1C0
E1C0
E1C0
E1C0
7380
7380
3F00
3F00
1E00
0C00
ENDCHAR

STARTCHAR w
ENCODING 119
SWIDTH 430 0
DWIDTH 12 0
BBX 10 12 1 0
BITMAP
E1C0
E1C0
E1C0
E1C0
EDC0
EDC0
EDC0
EDC0
EDC0
FFC0
7F80
3300
ENDCHAR

STARTCHAR x
ENCODING 120
SWIDTH 430 0
DWIDTH 12 0
BBX 12 12 0 0
BITMAP
F0F0
79E0
39C0
1F80
0F00
0600
0600
0F00
1F80
39C0
79E0
F0F0
ENDCHAR

STARTCHAR y
ENCODING 121
SWIDTH 430 0
DWIDTH 12 0
BBX 10 15 1 -3
BITMAP
E1C0
E1C0
E1C0
E1C0
E1C0
71C0
7380
3B80
3F00
1F00
0E00
0E00
1C00
7800
7000
ENDCHAR

STARTCHAR z
ENCODING 122
SWIDTH 430 0
DWIDTH 12 0
BBX 10 12 1 0
BITMAP
FFC0
FFC0
01C0
03C0
0780
0F00
1E00
3C00
7800
F000
FFC0
FFC0
ENDCHAR

STARTCHAR braceleft
ENCODING 123
SWIDTH 430 0
DWIDTH 12 0
BBX 8 20 2 -2
BITMAP
0F
1F
3C
38
38
38
1C
0C
F8
F8
0C
1C
38
38
38
38
38
3C
1F
0F
ENDCHAR

STARTCHAR bar
ENCODING 124
SWIDTH 430 0
DWIDTH 12 0
BBX 3 18 4 -1
BITMAP
E0
E0
E0
E0
E0
E0
E0
E0
E0
E0
E0
E0
E0
E0
E0
E0
E0
E0
ENDCHAR

STARTCHAR braceright
ENCODING 125
SWIDTH 430 0
DWIDTH 12 0
BBX 8 20 2 -2
BITMAP
F0
F8
3C
1C
1C
1C
38
30
1F
1F
30
38
1C
1C
1C
1C
1C
3C
F8
F0
ENDCHAR

STARTCHAR asciitilde
ENCODING 126
SWIDTH 430 0
DWIDTH 12 0
BBX 10 6 1 6
BITMAP
38C0
7CC0
FFC0
FFC0
CF80
C700
ENDCHAR

STARTCHAR OE
ENCODING 128
SWIDTH 430 0
DWIDTH 12 0
BBX 11 16 1 0
BITMAP
3FE0
7FE0
E700
E700
E700
E700
E700
E7C0
E7C0
E700
E700
E700
E700
E700
7FE0
3FE0
ENDCHAR

STARTCHAR oe
ENCODING 129
SWIDTH 430 0
DWIDTH 12 0
BBX 10 12 1 0
BITMAP
7B80
FFC0
CCC0
CCC0
CCC0
CFC0
CFC0
CC00
CC00
CCC0
FFC0
7B80
ENDCHAR

STARTCHAR Ydieresis
ENCODING 130
SWIDTH 430 0
DWIDTH 12 0
BBX 10 21 1 0
BITMAP
7380
7380
7380
0000
0000
E1C0
E1C0
E1C0
E1C0
E1C0
F3C0
7380
7F80
3F00
1E00
1E00
1E00
1E00
1E00
1E00
1E00
ENDCHAR

STARTCHAR Error
ENCODING 159
SWIDTH 430 0
DWIDTH 12 0
BBX 12 24 0 -3
BITMAP
0F80
3FE0
7FE0
7FF0
F9F0
F0F0
F0F0
F800
7C00
3C00
3E00
1F00
0F00
0F80
0780
0780
0780
0000
0000
0780
0780
0780
0780
0780
ENDCHAR

STARTCHAR exclamdown
ENCODING 161
SWIDTH 430 0
DWIDTH 12 0
BBX 3 17 4 -2
BITMAP
E0
E0
E0
00
E0
E0
E0
E0
E0
E0
E0
E0
E0
E0
E0
E0
E0
ENDCHAR

STARTCHAR cent
ENCODING 162
SWIDTH 430 0
DWIDTH 12 0
BBX 11 14 1 0
BITMAP
0600
0600
3F80
7FC0
F6E0
E6E0
E600
E600
E6E0
F6E0
7FC0
3F80
0600
0600
ENDCHAR

STARTCHAR sterling
ENCODING 163
SWIDTH 430 0
DWIDTH 12 0
BBX 10 16 1 0
BITMAP
0F00
1F80
1DC0
39C0
3800
3800
FF00
FF00
3800
3800
3800
3800
3800
3CC0
7FC0
EF80
ENDCHAR

STARTCHAR currency
ENCODING 164
SWIDTH 430 0
DWIDTH 12 0
BBX 10 11 1 3
BITMAP
E1C0
F3C0
FFC0
7F80
3300
3300
3300
7F80
FFC0
F3C0
E1C0
ENDCHAR

STARTCHAR yen
ENCODING 165
SWIDTH 430 0
DWIDTH 12 0
BBX 10 16 1 0
BITMAP
E1C0
E1C0
E1C0
E1C0
F3C0
7F80
3F00
FFC0
FFC0
1E00
FFC0
FFC0
1E00
1E00
1E00
1E00
ENDCHAR

STARTCHAR brokenbar
ENCODING 166
SWIDTH 430 0
DWIDTH 12 0
BBX 3 18 4 -1
BITMAP
E0
E0
E0
E0
E0
E0
E0
00
00
00
00
E0
E0
E0
E0
E0
E0
E0
ENDCHAR

STARTCHAR section
ENCODING 167
SWIDTH 430 0
DWIDTH 12 0
BBX 8 18 2 -2
BITMAP
3C
7E
F7
F7
70
38
7C
EE
E7
E7
77
3E
1C
0E
EF
EF
7E
3C
ENDCHAR

STARTCHAR dieresis
ENCODING 168
SWIDTH 430 0
DWIDTH 12 0
BBX 8 3 2 14
BITMAP
E7
E7
E7
ENDCHAR

STARTCHAR copyright
ENCODING 169
SWIDTH 430 0
DWIDTH 12 0
BBX 11 14 1 1
BITMAP
3F80
7FC0
C060
9F20
BFA0
BBA0
B820
B820
BBA0
BFA0
9F20
C060
7FC0
3F80
ENDCHAR

STARTCHAR ordfeminine
ENCODING 170
SWIDTH 430 0
DWIDTH 12 0
BBX 9 13 1 5
BITMAP
7E00
7F00
0700
3F00
7F00
E700
E700
7F80
3D80
0000
FF80
FF80
FF80
ENDCHAR

STARTCHAR guillemotleft
ENCODING 171
SWIDTH 430 0
DWIDTH 12 0
BBX 11 10 1 2
BITMAP
0EE0
1DC0
3B80
7700
EE00
EE00
7700
3B80
1DC0
0EE0
ENDCHAR

STARTCHAR logicalnot
ENCODING 172
SWIDTH 430 0
DWIDTH 12 0
BBX 10 5 1 6
BITMAP
FFC0
FFC0
FFC0
01C0
01C0
ENDCHAR

STARTCHAR hyphen
ENCODING 173
SWIDTH 430 0
DWIDTH 12 0
BBX 8 3 2 7
BITMAP
FF
FF
FF
ENDCHAR

STARTCHAR registered
ENCODING 174
SWIDTH 430 0
DWIDTH 12 0
BBX 11 14 1 1
BITMAP
3F80
7FC0
C060
9F20
BFA0
BBA0
BBA0
BF20
BF20
BBA0
B9E0
C060
7FC0
3F80
ENDCHAR

STARTCHAR macron
ENCODING 175
SWIDTH 430 0
DWIDTH 12 0
BBX 8 3 2 13
BITMAP
FF
FF
FF
ENDCHAR

STARTCHAR degree
ENCODING 176
SWIDTH 430 0
DWIDTH 12 0
BBX 6 6 3 12
BITMAP
30
78
CC
CC
78
30
ENDCHAR

STARTCHAR plusminus
ENCODING 177
SWIDTH 430 0
DWIDTH 12 0
BBX 9 15 2 0
BITMAP
1C00
1C00
1C00
1C00
FF80
FF80
FF80
1C00
1C00
1C00
1C00
0000
FF80
FF80
FF80
ENDCHAR

STARTCHAR twosuperior
ENCODING 178
SWIDTH 430 0
DWIDTH 12 0
BBX 6 10 3 8
BITMAP
78
FC
DC
1C
1C
38
70
E0
FC
FC
ENDCHAR

STARTCHAR threesuperior
ENCODING 179
SWIDTH 430 0
DWIDTH 12 0
BBX 6 10 3 8
BITMAP
78
FC
DC
1C
38
38
1C
DC
FC
78
ENDCHAR

STARTCHAR acute
ENCODING 180
SWIDTH 430 0
DWIDTH 12 0
BBX 5 3 4 14
BITMAP
38
70
E0
ENDCHAR

STARTCHAR mu
ENCODING 181
SWIDTH 430 0
DWIDTH 12 0
BBX 10 15 1 -3
BITMAP
7380
7380
7380
7380
7380
7380
7380
7380
7380
7380
7FC0
7EC0
C000
C000
C000
ENDCHAR

STARTCHAR paragraph
ENCODING 182
SWIDTH 430 0
DWIDTH 12 0
BBX 10 19 1 -1
BITMAP
1FC0
3FC0
7CC0
7CC0
FCC0
FCC0
FCC0
FCC0
FCC0
FCC0
7CC0
7CC0
1CC0
0CC0
0CC0
0CC0
0CC0
0CC0
0CC0
ENDCHAR

STARTCHAR periodcentered
ENCODING 183
SWIDTH 430 0
DWIDTH 12 0
BBX 3 3 4 7
BITMAP
E0
E0
E0
ENDCHAR

STARTCHAR cedilla
ENCODING 184
SWIDTH 430 0
DWIDTH 12 0
BBX 5 3 3 -3
BITMAP
38
70
E0
ENDCHAR

STARTCHAR onesuperior
ENCODING 185
SWIDTH 430 0
DWIDTH 12 0
BBX 5 10 4 8
BITMAP
30
70
F0
F0
70
70
70
70
F8
F8
ENDCHAR

STARTCHAR ordmasculine
ENCODING 186
SWIDTH 430 0
DWIDTH 12 0
BBX 8 13 2 5
BITMAP
3C
7E
FF
E7
E7
E7
FF
7E
3C
00
FF
FF
FF
ENDCHAR

STARTCHAR guillemotright
ENCODING 187
SWIDTH 430 0
DWIDTH 12 0
BBX 11 10 1 2
BITMAP
EE00
7700
3B80
1DC0
0EE0
0EE0
1DC0
3B80
7700
EE00
ENDCHAR

STARTCHAR onequarter
ENCODING 188
SWIDTH 430 0
DWIDTH 12 0
BBX 11 19 0 -1
BITMAP
3000
7000
F000
F000
7000
7060
F8E0
F9C0
0380
0700
0E00
1CC0
39C0
73C0
66C0
0CC0
0FE0
0FE0
00C0
ENDCHAR

STARTCHAR onehalf
ENCODING 189
SWIDTH 430 0
DWIDTH 12 0
BBX 11 19 0 -1
BITMAP
3000
7000
F000
F000
7060
70E0
F9C0
FB80
0700
0E00
1C00
3BC0
77E0
E6E0
C1E0
03C0
0380
07E0
07E0
ENDCHAR

STARTCHAR threequarters
ENCODING 190
SWIDTH 430 0
DWIDTH 12 0
BBX 11 19 1 -1
BITMAP
F800
FC00
1C00
1C00
F800
1C60
1CE0
FDC0
FB80
0700
0E00
1CC0
39C0
73C0
E6C0
CCC0
0FE0
0FE0
00C0
ENDCHAR

STARTCHAR questiondown
ENCODING 191
SWIDTH 430 0
DWIDTH 12 0
BBX 10 17 1 -2
BITMAP
0E00
0E00
0E00
0000
0E00
0E00
0E00
0E00
1E00
3C00
7800
F000
E1C0
E1C0
F3C0
7F80
3F00
ENDCHAR

STARTCHAR Agrave
ENCODING 192
SWIDTH 430 0
DWIDTH 12 0
BBX 10 21 1 0
BITMAP
3800
1C00
0E00
0000
0000
0C00
0C00
1E00
3F00
3F00
7380
7380
E1C0
E1C0
FFC0
FFC0
E1C0
E1C0
E1C0
E1C0
E1C0
ENDCHAR

STARTCHAR Aacute
ENCODING 193
SWIDTH 430 0
DWIDTH 12 0
BBX 10 21 1 0
BITMAP
0700
0E00
1C00
0000
0000
0C00
0C00
1E00
3F00
3F00
7380
7380
E1C0
E1C0
FFC0
FFC0
E1C0
E1C0
E1C0
E1C0
E1C0
ENDCHAR

STARTCHAR Acircumflex
ENCODING 194
SWIDTH 430 0
DWIDTH 12 0
BBX 10 21 1 0
BITMAP
0C00
1E00
3B00
0000
0000
0C00
0C00
1E00
3F00
3F00
7380
7380
E1C0
E1C0
FFC0
FFC0
E1C0
E1C0
E1C0
E1C0
E1C0
ENDCHAR

STARTCHAR Atilde
ENCODING 195
SWIDTH 430 0
DWIDTH 12 0
BBX 10 21 1 0
BITMAP
1D80
3F00
6E00
0000
0000
0C00
0C00
1E00
3F00
3F00
7380
7380
E1C0
E1C0
FFC0
FFC0
E1C0
E1C0
E1C0
E1C0
E1C0
ENDCHAR

STARTCHAR Adieresis
ENCODING 196
SWIDTH 430 0
DWIDTH 12 0
BBX 10 21 1 0
BITMAP
7380
7380
7380
0000
0000
0C00
0C00
1E00
3F00
3F00
7380
7380
E1C0
E1C0
FFC0
FFC0
E1C0
E1C0
E1C0
E1C0
E1C0
ENDCHAR

STARTCHAR Aring
ENCODING 197
SWIDTH 430 0
DWIDTH 12 0
BBX 10 21 1 0
BITMAP
3F00
7380
3F00
0000
0000
0C00
0C00
1E00
3F00
3F00
7380
7380
E1C0
E1C0
FFC0
FFC0
E1C0
E1C0
E1C0
E1C0
E1C0
ENDCHAR

STARTCHAR AE
ENCODING 198
SWIDTH 430 0
DWIDTH 12 0
BBX 11 16 1 0
BITMAP
1FE0
3FE0
7F00
F700
E700
E700
E700
FFC0
FFC0
E700
E700
E700
E700
E700
E7E0
E7E0
ENDCHAR

STARTCHAR Ccedilla
ENCODING 199
SWIDTH 430 0
DWIDTH 12 0
BBX 10 19 1 -3
BITMAP
3F00
7F80
F3C0
E1C0
E000
E000
E000
E000
E000
E000
E000
E000
E1C0
F3C0
7F80
3F00
1C00
3800
7000
ENDCHAR

STARTCHAR Egrave
ENCODING 200
SWIDTH 430 0
DWIDTH 12 0
BBX 10 21 1 0
BITMAP
3800
1C00
0E00
0000
0000
FFC0
FFC0
E000
E000
E000
E000
E000
FF00
FF00
E000
E000
E000
E000
E000
FFC0
FFC0
ENDCHAR

STARTCHAR Eacute
ENCODING 201
SWIDTH 430 0
DWIDTH 12 0
BBX 10 21 1 0
BITMAP
0700
0E00
1C00
0000
0000
FFC0
FFC0
E000
E000
E000
E000
E000
FF00
FF00
E000
E000
E000
E000
E000
FFC0
FFC0
ENDCHAR

STARTCHAR Ecircumflex
ENCODING 202
SWIDTH 430 0
DWIDTH 12 0
BBX 10 21 1 0
BITMAP
0C00
1E00
3B00
0000
0000
FFC0
FFC0
E000
E000
E000
E000
E000
FF00
FF00
E000
E000
E000
E000
E000
FFC0
FFC0
ENDCHAR

STARTCHAR Edieresis
ENCODING 203
SWIDTH 430 0
DWIDTH 12 0
BBX 10 21 1 0
BITMAP
7380
7380
7380
0000
0000
FFC0
FFC0
E000
E000
E000
E000
E000
FF00
FF00
E000
E000
E000
E000
E000
FFC0
FFC0
ENDCHAR

STARTCHAR Igrave
ENCODING 204
SWIDTH 430 0
DWIDTH 12 0
BBX 9 21 2 0
BITMAP
3800
1C00
0E00
0000
0000
FF80
FF80
1C00
1C00
1C00
1C00
1C00
1C00
1C00
1C00
1C00
1C00
1C00
1C00
FF80
FF80
ENDCHAR

STARTCHAR Iacute
ENCODING 205
SWIDTH 430 0
DWIDTH 12 0
BBX 9 21 2 0
BITMAP
0700
0E00
1C00
0000
0000
FF80
FF80
1C00
1C00
1C00
1C00
1C00
1C00
1C00
1C00
1C00
1C00
1C00
1C00
FF80
FF80
ENDCHAR

STARTCHAR Icircumflex
ENCODING 206
SWIDTH 430 0
DWIDTH 12 0
BBX 9 21 2 0
BITMAP
1800
3C00
7600
0000
0000
FF80
FF80
1C00
1C00
1C00
1C00
1C00
1C00
1C00
1C00
1C00
1C00
1C00
1C00
FF80
FF80
ENDCHAR

STARTCHAR Idieresis
ENCODING 207
SWIDTH 430 0
DWIDTH 12 0
BBX 9 21 2 0
BITMAP
7700
7700
7700
0000
0000
FF80
FF80
1C00
1C00
1C00
1C00
1C00
1C00
1C00
1C00
1C00
1C00
1C00
1C00
FF80
FF80
ENDCHAR

STARTCHAR Eth
ENCODING 208
SWIDTH 430 0
DWIDTH 12 0
BBX 11 16 0 0
BITMAP
7F80
7FC0
71E0
70E0
70E0
70E0
70E0
FCE0
FCE0
70E0
70E0
70E0
70E0
71E0
7FC0
7F80
ENDCHAR

STARTCHAR Ntilde
ENCODING 209
SWIDTH 430 0
DWIDTH 12 0
BBX 10 21 1 0
BITMAP
1D80
3F00
6E00
0000
0000
E1C0
E1C0
F1C0
F1C0
F9C0
F9C0
FDC0
FDC0
EFC0
EFC0
E7C0
E7C0
E3C0
E3C0
E1C0
E1C0
ENDCHAR

STARTCHAR Ograve
ENCODING 210
SWIDTH 430 0
DWIDTH 12 0
BBX 10 21 1 0
BITMAP
3800
1C00
0E00
0000
0000
3F00
7F80
F3C0
E1C0
E1C0
E1C0
E1C0
E1C0
E1C0
E1C0
E1C0
E1C0
E1C0
F3C0
7F80
3F00
ENDCHAR

STARTCHAR Oacute
ENCODING 211
SWIDTH 430 0
DWIDTH 12 0
BBX 10 21 1 0
BITMAP
0700
0E00
1C00
0000
0000
3F00
7F80
F3C0
E1C0
E1C0
E1C0
E1C0
E1C0
E1C0
E1C0
E1C0
E1C0
E1C0
F3C0
7F80
3F00
ENDCHAR

STARTCHAR Ocircumflex
ENCODING 212
SWIDTH 430 0
DWIDTH 12 0
BBX 10 21 1 0
BITMAP
0C00
1E00
3B00
0000
0000
3F00
7F80
F3C0
E1C0
E1C0
E1C0
E1C0
E1C0
E1C0
E1C0
E1C0
E1C0
E1C0
F3C0
7F80
3F00
ENDCHAR

STARTCHAR Otilde
ENCODING 213
SWIDTH 430 0
DWIDTH 12 0
BBX 10 21 1 0
BITMAP
1D80
3F00
6E00
0000
0000
3F00
7F80
F3C0
E1C0
E1C0
E1C0
E1C0
E1C0
E1C0
E1C0
E1C0
E1C0
E1C0
F3C0
7F80
3F00
ENDCHAR

STARTCHAR Odieresis
ENCODING 214
SWIDTH 430 0
DWIDTH 12 0
BBX 10 21 1 0
BITMAP
7380
7380
7380
0000
0000
3F00
7F80
F3C0
E1C0
E1C0
E1C0
E1C0
E1C0
E1C0
E1C0
E1C0
E1C0
E1C0
F3C0
7F80
3F00
ENDCHAR

STARTCHAR multiply
ENCODING 215
SWIDTH 430 0
DWIDTH 12 0
BBX 11 9 1 4
BITMAP
E0E0
71C0
3B80
1F00
0E00
1F00
3B80
71C0
E0E0
ENDCHAR

STARTCHAR Oslash
ENCODING 216
SWIDTH 430 0
DWIDTH 12 0
BBX 10 20 1 -2
BITMAP
00C0
00C0
3FC0
7F80
F1C0
E3C0
E3C0
E7C0
E5C0
EDC0
EDC0
E9C0
F9C0
F1C0
F1C0
E3C0
7F80
FF00
C000
C000
ENDCHAR

STARTCHAR Ugrave
ENCODING 217
SWIDTH 430 0
DWIDTH 12 0
BBX 10 21 1 0
BITMAP
3800
1C00
0E00
0000
0000
E1C0
E1C0
E1C0
E1C0
E1C0
E1C0
E1C0
E1C0
E1C0
E1C0
E1C0
E1C0
E1C0
F3C0
7F80
3F00
ENDCHAR

STARTCHAR Uacute
ENCODING 218
SWIDTH 430 0
DWIDTH 12 0
BBX 10 21 1 0
BITMAP
0700
0E00
1C00
0000
0000
E1C0
E1C0
E1C0
E1C0
E1C0
E1C0
E1C0
E1C0
E1C0
E1C0
E1C0
E1C0
E1C0
F3C0
7F80
3F00
ENDCHAR

STARTCHAR Ucircumflex
ENCODING 219
SWIDTH 430 0
DWIDTH 12 0
BBX 10 21 1 0
BITMAP
0C00
1E00
3B00
0000
0000
E1C0
E1C0
E1C0
E1C0
E1C0
E1C0
E1C0
E1C0
E1C0
E1C0
E1C0
E1C0
E1C0
F3C0
7F80
3F00
ENDCHAR

STARTCHAR Udieresis
ENCODING 220
SWIDTH 430 0
DWIDTH 12 0
BBX 10 21 1 0
BITMAP
7380
7380
7380
0000
0000
E1C0
E1C0
E1C0
E1C0
E1C0
E1C0
E1C0
E1C0
E1C0
E1C0
E1C0
E1C0
E1C0
F3C0
7F80
3F00
ENDCHAR

STARTCHAR Yacute
ENCODING 221
SWIDTH 430 0
DWIDTH 12 0
BBX 10 20 1 0
BITMAP
0700
0E00
1C00
0000
E1C0
E1C0
E1C0
E1C0
E1C0
F3C0
7380
7F80
3F00
1E00
1E00
1E00
1E00
1E00
1E00
1E00
ENDCHAR

STARTCHAR Thorn
ENCODING 222
SWIDTH 430 0
DWIDTH 12 0
BBX 10 16 2 0
BITMAP
E000
E000
E000
FF00
FF80
E3C0
E1C0
E1C0
E1C0
E1C0
E3C0
FF80
FF00
E000
E000
E000
ENDCHAR

STARTCHAR germandbls
ENCODING 223
SWIDTH 430 0
DWIDTH 12 0
BBX 10 16 1 0
BITMAP
0F00
1F80
39C0
39C0
39C0
3980
FB00
FB80
39C0
39C0
39C0
39C0
39C0
39C0
3B80
7700
ENDCHAR

STARTCHAR agrave
ENCODING 224
SWIDTH 430 0
DWIDTH 12 0
BBX 10 17 1 0
BITMAP
3800
1C00
0E00
0000
0000
7F00
7F80
03C0
01C0
3DC0
7FC0
F3C0
E1C0
E1C0
F3C0
7FC0
3DC0
ENDCHAR

STARTCHAR aacute
ENCODING 225
SWIDTH 430 0
DWIDTH 12 0
BBX 10 17 1 0
BITMAP
0380
0700
0E00
0000
0000
7F00
7F80
03C0
01C0
3DC0
7FC0
F3C0
E1C0
E1C0
F3C0
7FC0
3DC0
ENDCHAR

STARTCHAR acircumflex
ENCODING 226
SWIDTH 430 0
DWIDTH 12 0
BBX 10 17 1 0
BITMAP
0C00
1E00
3B00
0000
0000
7F00
7F80
03C0
01C0
3DC0
7FC0
F3C0
E1C0
E1C0
F3C0
7FC0
3DC0
ENDCHAR

STARTCHAR atilde
ENCODING 227
SWIDTH 430 0
DWIDTH 12 0
BBX 10 17 1 0
BITMAP
0EC0
1F80
3700
0000
0000
3F00
3F80
03C0
01C0
3DC0
7FC0
F3C0
E1C0
E1C0
F3C0
7FC0
3DC0
ENDCHAR

STARTCHAR adieresis
ENCODING 228
SWIDTH 430 0
DWIDTH 12 0
BBX 10 17 1 0
BITMAP
3B80
3B80
3B80
0000
0000
7F00
7F80
03C0
01C0
3DC0
7FC0
F3C0
E1C0
E1C0
F3C0
7FC0
3DC0
ENDCHAR

STARTCHAR aring
ENCODING 229
SWIDTH 430 0
DWIDTH 12 0
BBX 10 17 1 0
BITMAP
3F00
7380
3F00
0000
0000
7F00
7F80
03C0
01C0
3FC0
7FC0
F1C0
E1C0
E1C0
F3C0
7FC0
3DC0
ENDCHAR

STARTCHAR ae
ENCODING 230
SWIDTH 430 0
DWIDTH 12 0
BBX 10 12 1 0
BITMAP
7B80
7FC0
1EC0
1EC0
1EC0
7FC0
FFC0
DE00
DE00
DEC0
FFC0
7B80
ENDCHAR

STARTCHAR ccedilla
ENCODING 231
SWIDTH 430 0
DWIDTH 12 0
BBX 10 15 1 -3
BITMAP
3F00
7F80
F3C0
E1C0
E000
E000
E000
E000
E1C0
F3C0
7F80
3F00
1C00
3800
7000
ENDCHAR

STARTCHAR egrave
ENCODING 232
SWIDTH 430 0
DWIDTH 12 0
BBX 10 17 1 0
BITMAP
3800
1C00
0E00
0000
0000
3F00
7F80
F3C0
E1C0
FFC0
FFC0
E000
E000
E1C0
F3C0
7F80
3F00
ENDCHAR

STARTCHAR eacute
ENCODING 233
SWIDTH 430 0
DWIDTH 12 0
BBX 10 17 1 0
BITMAP
0700
0E00
1C00
0000
0000
3F00
7F80
F3C0
E1C0
FFC0
FFC0
E000
E000
E1C0
F3C0
7F80
3F00
ENDCHAR

STARTCHAR ecircumflex
ENCODING 234
SWIDTH 430 0
DWIDTH 12 0
BBX 10 17 1 0
BITMAP
0C00
1E00
3B00
0000
0000
3F00
7F80
F3C0
E1C0
FFC0
FFC0
E000
E000
E1C0
F3C0
7F80
3F00
ENDCHAR

STARTCHAR edieresis
ENCODING 235
SWIDTH 430 0
DWIDTH 12 0
BBX 10 17 1 0
BITMAP
7380
7380
7380
0000
0000
3F00
7F80
F3C0
E1C0
FFC0
FFC0
E000
E000
E1C0
F3C0
7F80
3F00
ENDCHAR

STARTCHAR igrave
ENCODING 236
SWIDTH 430 0
DWIDTH 12 0
BBX 9 17 2 0
BITMAP
E000
7000
3800
0000
0000
7C00
7C00
1C00
1C00
1C00
1C00
1C00
1C00
1C00
1C00
FF80
FF80
ENDCHAR

STARTCHAR iacute
ENCODING 237
SWIDTH 430 0
DWIDTH 12 0
BBX 9 17 2 0
BITMAP
0E00
1C00
3800
0000
0000
7C00
7C00
1C00
1C00
1C00
1C00
1C00
1C00
1C00
1C00
FF80
FF80
ENDCHAR

STARTCHAR icircumflex
ENCODING 238
SWIDTH 430 0
DWIDTH 12 0
BBX 9 17 2 0
BITMAP
1800
3C00
7600
0000
0000
7C00
7C00
1C00
1C00
1C00
1C00
1C00
1C00
1C00
1C00
FF80
FF80
ENDCHAR

STARTCHAR idieresis
ENCODING 239
SWIDTH 430 0
DWIDTH 12 0
BBX 9 17 2 0
BITMAP
E700
E700
E700
0000
0000
7C00
7C00
1C00
1C00
1C00
1C00
1C00
1C00
1C00
1C00
FF80
FF80
ENDCHAR

STARTCHAR eth
ENCODING 240
SWIDTH 430 0
DWIDTH 12 0
BBX 10 20 1 0
BITMAP
C000
F000
3980
1F80
1E00
7E00
6700
0300
3F80
7F80
F3C0
E1C0
E1C0
E1C0
E1C0
E1C0
E1C0
F3C0
7F80
3F00
ENDCHAR

STARTCHAR ntilde
ENCODING 241
SWIDTH 430 0
DWIDTH 12 0
BBX 10 17 1 0
BITMAP
0EC0
1F80
3700
0000
0000
EF00
FF80
F3C0
E1C0
E1C0
E1C0
E1C0
E1C0
E1C0
E1C0
E1C0
E1C0
ENDCHAR

STARTCHAR ograve
ENCODING 242
SWIDTH 430 0
DWIDTH 12 0
BBX 10 17 1 0
BITMAP
3800
1C00
0E00
0000
0000
3F00
7F80
F3C0
E1C0
E1C0
E1C0
E1C0
E1C0
E1C0
F3C0
7F80
3F00
ENDCHAR

STARTCHAR oacute
ENCODING 243
SWIDTH 430 0
DWIDTH 12 0
BBX 10 17 1 0
BITMAP
0700
0E00
1C00
0000
0000
3F00
7F80
F3C0
E1C0
E1C0
E1C0
E1C0
E1C0
E1C0
F3C0
7F80
3F00
ENDCHAR

STARTCHAR ocircumflex
ENCODING 244
SWIDTH 430 0
DWIDTH 12 0
BBX 10 17 1 0
BITMAP
0C00
1E00
3B00
0000
0000
3F00
7F80
F3C0
E1C0
E1C0
E1C0
E1C0
E1C0
E1C0
F3C0
7F80
3F00
ENDCHAR

STARTCHAR otilde
ENCODING 245
SWIDTH 430 0
DWIDTH 12 0
BBX 10 17 1 0
BITMAP
0EC0
1F80
3700
0000
0000
3F00
7F80
F3C0
E1C0
E1C0
E1C0
E1C0
E1C0
E1C0
F3C0
7F80
3F00
ENDCHAR

STARTCHAR odieresis
ENCODING 246
SWIDTH 430 0
DWIDTH 12 0
BBX 10 17 1 0
BITMAP
7380
7380
7380
0000
0000
3F00
7F80
F3C0
E1C0
E1C0
E1C0
E1C0
E1C0
E1C0
F3C0
7F80
3F00
ENDCHAR

STARTCHAR divide
ENCODING 247
SWIDTH 430 0
DWIDTH 12 0
BBX 10 13 1 2
BITMAP
1E00
1E00
1E00
0000
0000
FFC0
FFC0
FFC0
0000
0000
1E00
1E00
1E00
ENDCHAR

STARTCHAR oslash
ENCODING 248
SWIDTH 430 0
DWIDTH 12 0
BBX 10 16 1 -2
BITMAP
0180
0180
3F00
7F80
F3C0
E7C0
E5C0
EDC0
EDC0
E9C0
F9C0
F3C0
7F80
3F00
6000
6000
ENDCHAR

STARTCHAR ugrave
ENCODING 249
SWIDTH 430 0
DWIDTH 12 0
BBX 10 17 1 0
BITMAP
3800
1C00
0E00
0000
0000
E1C0
E1C0
E1C0
E1C0
E1C0
E1C0
E1C0
E1C0
E1C0
F3C0
7FC0
3DC0
ENDCHAR

STARTCHAR uacute
ENCODING 250
SWIDTH 430 0
DWIDTH 12 0
BBX 10 17 1 0
BITMAP
0700
0E00
1C00
0000
0000
E1C0
E1C0
E1C0
E1C0
E1C0
E1C0
E1C0
E1C0
E1C0
F3C0
7FC0
3DC0
ENDCHAR

STARTCHAR ucircumflex
ENCODING 251
SWIDTH 430 0
DWIDTH 12 0
BBX 10 17 1 0
BITMAP
0C00
1E00
3B00
0000
0000
E1C0
E1C0
E1C0
E1C0
E1C0
E1C0
E1C0
E1C0
E1C0
F3C0
7FC0
3DC0
ENDCHAR

STARTCHAR udieresis
ENCODING 252
SWIDTH 430 0
DWIDTH 12 0
BBX 10 17 1 0
BITMAP
7380
7380
7380
0000
0000
E1C0
E1C0
E1C0
E1C0
E1C0
E1C0
E1C0
E1C0
E1C0
F3C0
7FC0
3DC0
ENDCHAR

STARTCHAR yacute
ENCODING 253
SWIDTH 430 0
DWIDTH 12 0
BBX 10 20 1 -3
BITMAP
0700
0E00
1C00
0000
0000
E1C0
E1C0
E1C0
E1C0
E1C0
71C0
7380
3B80
3F00
1F00
0E00
0E00
1C00
7800
7000
ENDCHAR

STARTCHAR thorn
ENCODING 254
SWIDTH 430 0
DWIDTH 12 0
BBX 10 19 1 -3
BITMAP
E000
E000
E000
E000
EF00
FF80
F3C0
E1C0
E1C0
E1C0
E1C0
E1C0
E1C0
F3C0
FF80
EF00
E000
E000
E000
ENDCHAR

STARTCHAR ydieresis
ENCODING 255
SWIDTH 430 0
DWIDTH 12 0
BBX 10 20 1 -3
BITMAP
7380
7380
7380
0000
0000
E1C0
E1C0
E1C0
E1C0
E1C0
71C0
7380
3B80
3F00
1F00
0E00
0E00
1C00
7800
7000
ENDCHAR
ENDFONT
